# xmcd
#
# Track frame offsets: 
#        150
#        21440
#        41383
#        63158
#        85983
#        104008
#        127920
#        145328
#        164403
#        183378
#
# Disc length: 2756 seconds
#
# Revision: 0
# Processed by: cddbd v1.5.2PL0 Copyright (c) Steve Scherf et al.
# Submitted via: ExactAudioCopy v1.0b3
#
DISCID=860ac20a
DTITLE=Various Artist - Giang Cau
DYEAR=1994
DGENRE=
TTITLE0=Phi Nhung, Thai Chau - Giang cau
TTITLE1=My Huyen - Khuya nay anh di roi
TTITLE2=Huong Lan - Co lai do Ben Ha
TTITLE3=Phuong Lam - Tinh yeu don phuong
TTITLE4=Phi Nhung - Trom nhin nhau
TTITLE5=Phuong Mai, Phuong Lam - Tinh ngheo
TTITLE6=Phi Nhung - Loi ve dat Me
TTITLE7=My Huyen - Ngay da dom bong
TTITLE8=Huong Lan - Loi ve xom nho
TTITLE9=Phi Nhung - Xin anh giu tron tinh que
EXTD=
EXTT0=
EXTT1=
EXTT2=
EXTT3=
EXTT4=
EXTT5=
EXTT6=
EXTT7=
EXTT8=
EXTT9=
PLAYORDER=
